<svg width="20" height="20" viewBox="0 0 20 20" fill="none" xmlns="http://www.w3.org/2000/svg">
<path d="M19.2306 3.11575L16.8853 0.770585C16.3874 0.273743 15.7263 0 15.0231 0C15.0221 0 15.0211 0 15.02 0C14.3158 0.00105263 13.6547 0.275749 13.1579 0.774697L0.15368 13.8389C0.0557853 13.9368 0 14.0705 0 14.2105V19.4737C0 19.7642 0.235789 20 0.526315 20H5.78947C5.92842 20 6.06213 19.9453 6.16108 19.8463L19.2252 6.84211C19.7252 6.34526 19.9989 5.68417 20 4.97995C20.0021 4.27574 19.7274 3.6147 19.2306 3.11575ZM5.5736 18.9474H1.05366V14.4285L10.782 4.65473L15.3462 9.21901L5.5736 18.9474ZM18.4843 6.09581L16.0937 8.47579L11.5252 3.90843L13.9052 1.51791C14.2031 1.21896 14.5989 1.05366 15.0221 1.05366C15.0231 1.05366 15.0241 1.05366 15.0241 1.05366C15.4463 1.05366 15.8431 1.21783 16.1421 1.51573L18.4873 3.86102C18.7863 4.15997 18.9494 4.55682 18.9494 4.97893C18.9494 5.40103 18.7832 5.79791 18.4843 6.09581Z" fill="#25314C"/>
</svg>
