<svg width="31" height="28" viewBox="0 0 31 28" fill="none" xmlns="http://www.w3.org/2000/svg">
<path d="M25.2895 4.66667H22.6139L21.726 2.12788C21.2822 0.855431 20.0373 0 18.6309 0H12.3691C10.9627 0 9.71782 0.855431 9.27403 2.12788L8.38614 4.66667H5.71053C1.97421 4.66667 0 6.54889 0 10.1111V22.5556C0 26.1178 1.97421 28 5.71053 28H25.2895C29.0258 28 31 26.1178 31 22.5556V10.1111C31 6.54889 29.0258 4.66667 25.2895 4.66667ZM29.3684 22.5556C29.3684 25.2451 28.1105 26.4444 25.2895 26.4444H5.71053C2.88953 26.4444 1.63158 25.2451 1.63158 22.5556V10.1111C1.63158 7.42156 2.88953 6.22222 5.71053 6.22222H8.97368C9.32447 6.22222 9.63626 6.00749 9.74884 5.69016L10.8224 2.61968C11.0443 1.98346 11.6675 1.55556 12.3691 1.55556H18.6309C19.3341 1.55556 19.9557 1.98346 20.1776 2.61968L21.2512 5.69016C21.3621 6.00749 21.6755 6.22222 22.0263 6.22222H25.2895C28.1105 6.22222 29.3684 7.42156 29.3684 10.1111V22.5556ZM15.5 10.8889C12.3511 10.8889 9.78947 13.3311 9.78947 16.3333C9.78947 19.3356 12.3511 21.7778 15.5 21.7778C18.6489 21.7778 21.2105 19.3356 21.2105 16.3333C21.2105 13.3311 18.6489 10.8889 15.5 10.8889ZM15.5 20.2222C13.2501 20.2222 11.4211 18.4769 11.4211 16.3333C11.4211 14.1898 13.2501 12.4444 15.5 12.4444C17.7499 12.4444 19.5789 14.1898 19.5789 16.3333C19.5789 18.4769 17.7499 20.2222 15.5 20.2222ZM25.6974 10.8889C25.6974 11.5329 25.1492 12.0556 24.4737 12.0556C23.7982 12.0556 23.25 11.5329 23.25 10.8889C23.25 10.2449 23.7982 9.72222 24.4737 9.72222C25.1492 9.72222 25.6974 10.2449 25.6974 10.8889Z" fill="#25314C"/>
</svg>
