<svg width="42" height="42" viewBox="0 0 42 42" fill="none" xmlns="http://www.w3.org/2000/svg">
<path d="M22.1053 0H19.8947C17.0852 0 15.4737 1.61147 15.4737 4.42105V37.5789C15.4737 40.3885 17.0852 42 19.8947 42H22.1053C24.9148 42 26.5263 40.3885 26.5263 37.5789V4.42105C26.5263 1.61147 24.9148 0 22.1053 0ZM24.3158 37.5789C24.3158 39.1705 23.6968 39.7895 22.1053 39.7895H19.8947C18.3032 39.7895 17.6842 39.1705 17.6842 37.5789V4.42105C17.6842 2.82947 18.3032 2.21053 19.8947 2.21053H22.1053C23.6968 2.21053 24.3158 2.82947 24.3158 4.42105V37.5789ZM37.5789 11.0526H35.3684C32.5588 11.0526 30.9474 12.6641 30.9474 15.4737V37.5789C30.9474 40.3885 32.5588 42 35.3684 42H37.5789C40.3885 42 42 40.3885 42 37.5789V15.4737C42 12.6641 40.3885 11.0526 37.5789 11.0526ZM39.7895 37.5789C39.7895 39.1705 39.1705 39.7895 37.5789 39.7895H35.3684C33.7768 39.7895 33.1579 39.1705 33.1579 37.5789V15.4737C33.1579 13.8821 33.7768 13.2632 35.3684 13.2632H37.5789C39.1705 13.2632 39.7895 13.8821 39.7895 15.4737V37.5789ZM6.63158 19.8947H4.42105C1.61147 19.8947 0 21.5062 0 24.3158V37.5789C0 40.3885 1.61147 42 4.42105 42H6.63158C9.44116 42 11.0526 40.3885 11.0526 37.5789V24.3158C11.0526 21.5062 9.44116 19.8947 6.63158 19.8947ZM8.8421 37.5789C8.8421 39.1705 8.22316 39.7895 6.63158 39.7895H4.42105C2.82947 39.7895 2.21053 39.1705 2.21053 37.5789V24.3158C2.21053 22.7242 2.82947 22.1053 4.42105 22.1053H6.63158C8.22316 22.1053 8.8421 22.7242 8.8421 24.3158V37.5789Z" fill="#25314C"/>
</svg>
