<svg width="19" height="15" viewBox="0 0 19 15" fill="none" xmlns="http://www.w3.org/2000/svg">
<path d="M18.5221 5.76709C17.2351 3.61309 14.3531 0 9.50111 0C4.64911 0 1.76711 3.61309 0.480113 5.76709C-0.159887 6.83609 -0.159863 8.16389 0.479137 9.23389C1.76614 11.3879 4.64813 15.001 9.50013 15.001C14.3521 15.001 17.2341 11.3879 18.5211 9.23389C19.1611 8.16389 19.1611 6.83609 18.5221 5.76709ZM17.6642 8.72095C17.6632 8.72095 17.6632 8.72095 17.6642 8.72095C16.4862 10.6929 13.8591 14 9.50111 14C5.14311 14 2.51602 10.6919 1.33802 8.72095C0.889024 7.96795 0.889 7.03303 1.339 6.28003C2.516 4.30803 5.14311 1.00098 9.50111 1.00098C13.8591 1.00098 16.4862 4.30903 17.6642 6.28003C18.1132 7.03203 18.1132 7.96795 17.6642 8.72095ZM9.50111 3.5C7.29511 3.5 5.50111 5.294 5.50111 7.5C5.50111 9.706 7.29511 11.5 9.50111 11.5C11.7071 11.5 13.5011 9.706 13.5011 7.5C13.5011 5.294 11.7071 3.5 9.50111 3.5ZM9.50111 10.5C7.84711 10.5 6.50111 9.154 6.50111 7.5C6.50111 5.846 7.84711 4.5 9.50111 4.5C11.1551 4.5 12.5011 5.846 12.5011 7.5C12.5011 9.154 11.1551 10.5 9.50111 10.5Z" fill="#25314C"/>
</svg>
