<svg width="26" height="26" viewBox="0 0 26 26" fill="none" xmlns="http://www.w3.org/2000/svg">
<path d="M24.9997 4.05047L21.9509 1.00176C21.3036 0.355866 20.4442 0 19.5301 0C19.5287 0 19.5274 0 19.526 0C18.6106 0.00136842 17.7511 0.358474 17.1053 1.00711L0.199784 17.9906C0.0725209 18.1179 0 18.2917 0 18.4737V25.3158C0 25.6935 0.306526 26 0.68421 26H7.52631C7.70694 26 7.88077 25.9288 8.0094 25.8002L24.9927 8.89474C25.6427 8.24884 25.9986 7.38942 26 6.47394C26.0027 5.55847 25.6456 4.6991 24.9997 4.05047ZM7.24568 24.6316H1.36976V18.757L14.0166 6.05115L19.95 11.9847L7.24568 24.6316ZM24.0295 7.92455L20.9219 11.0185L14.9828 5.08097L18.0768 1.97329C18.464 1.58465 18.9786 1.36976 19.5287 1.36976C19.5301 1.36976 19.5314 1.36976 19.5314 1.36976C20.0801 1.36976 20.596 1.58318 20.9847 1.97045L24.0335 5.01933C24.4222 5.40796 24.6342 5.92387 24.6342 6.4726C24.6342 7.02134 24.4182 7.53728 24.0295 7.92455Z" fill="#25314C"/>
</svg>
