<svg width="40" height="40" viewBox="0 0 40 40" fill="none" xmlns="http://www.w3.org/2000/svg">
<path d="M39.6919 38.2041L31.2515 29.7637C34.0642 26.6014 35.7906 22.4517 35.7906 17.8957C35.7906 8.02779 27.763 0 17.8953 0C8.02763 0 0 8.02779 0 17.8957C0 27.7636 8.02763 35.7914 17.8953 35.7914C22.4512 35.7914 26.6009 34.065 29.7631 31.2522L38.2033 39.6926C38.4096 39.899 38.6791 40 38.9486 40C39.2181 40 39.4876 39.8968 39.6939 39.6926C40.1023 39.2821 40.1024 38.6168 39.6919 38.2041ZM2.10327 17.8957C2.10327 9.18996 9.18561 2.10537 17.8933 2.10537C26.6009 2.10537 33.6832 9.18996 33.6832 17.8957C33.6832 26.6014 26.6009 33.686 17.8933 33.686C9.18561 33.686 2.10327 26.6014 2.10327 17.8957Z" fill="#25314C"/>
</svg>
