<svg width="45" height="29" viewBox="0 0 45 29" fill="none" xmlns="http://www.w3.org/2000/svg">
<path d="M31.7267 5.8185C34.1758 8.15158 35.5258 11.2343 35.5258 14.4997C35.5258 17.7651 34.1758 20.8479 31.7267 23.1809C31.4946 23.4018 31.1891 23.5109 30.8859 23.5109C30.5851 23.5109 30.2842 23.4038 30.052 23.1875C29.5878 22.7548 29.5833 22.0476 30.0428 21.6105C32.0537 19.6989 33.1573 17.1718 33.1573 14.4997C33.1573 11.8276 32.0513 9.3005 30.0428 7.38898C29.5833 6.95181 29.5878 6.24468 30.052 5.81196C30.5163 5.37925 31.2648 5.38132 31.7267 5.8185ZM14.948 5.80979C14.4814 5.37707 13.7305 5.37909 13.2733 5.8185C10.8243 8.15158 9.47417 11.2343 9.47417 14.4997C9.47417 17.7651 10.8243 20.8479 13.2733 23.1809C13.5054 23.4018 13.8109 23.5109 14.1141 23.5109C14.4149 23.5109 14.7158 23.4038 14.948 23.1875C15.4122 22.7548 15.417 22.0476 14.9575 21.6105C12.9466 19.6989 11.8427 17.1718 11.8427 14.4997C11.8427 11.8276 12.949 9.3005 14.9575 7.38898C15.417 6.94958 15.4122 6.24473 14.948 5.80979ZM39.2255 0.36973C38.7802 -0.0897488 38.0364 -0.121324 37.5509 0.291314C37.0677 0.703953 37.0297 1.40891 37.4679 1.86615C40.7981 5.33008 42.6338 9.81566 42.6338 14.5019C42.6338 19.1881 40.8004 23.6737 37.4679 27.1376C37.0297 27.5949 37.0677 28.2998 37.5509 28.7125C37.7783 28.9065 38.0626 29 38.3469 29C38.669 29 38.9887 28.8772 39.2255 28.6319C42.9489 24.7575 45 19.7391 45 14.5019C45 9.26473 42.9489 4.24184 39.2255 0.36973ZM7.44911 0.289136C6.9683 -0.123502 6.21977 -0.091927 5.77448 0.367551C2.05113 4.24189 0 9.26038 0 14.4975C0 19.7347 2.05113 24.7554 5.77448 28.6275C6.01133 28.8706 6.33131 28.9956 6.65343 28.9956C6.93766 28.9956 7.22173 28.9022 7.44911 28.7081C7.9323 28.2955 7.97027 27.5905 7.53209 27.1333C4.20192 23.6693 2.36623 19.1838 2.36623 14.4975C2.36623 9.81131 4.19955 5.32573 7.53209 1.8618C7.96791 1.40901 7.9323 0.701774 7.44911 0.289136ZM27.2359 14.4997C27.2359 16.9599 25.1113 18.9607 22.4988 18.9607C19.8863 18.9607 17.7618 16.9599 17.7618 14.4997C17.7618 12.0395 19.8863 10.0388 22.4988 10.0388C25.1113 10.0388 27.2359 12.0395 27.2359 14.4997ZM24.8674 14.4997C24.8674 13.2707 23.8063 12.2692 22.4988 12.2692C21.1914 12.2692 20.1303 13.2707 20.1303 14.4997C20.1303 15.7287 21.1914 16.7302 22.4988 16.7302C23.8063 16.7302 24.8674 15.7287 24.8674 14.4997Z" fill="#25314C"/>
</svg>
