<svg width="42" height="38" viewBox="0 0 42 38" fill="none" xmlns="http://www.w3.org/2000/svg">
<path d="M15.0181 16C19.4301 16 23.0181 12.412 23.0181 8C23.0181 3.588 19.4301 0 15.0181 0C10.6061 0 7.01807 3.588 7.01807 8C7.01807 12.412 10.6061 16 15.0181 16ZM15.0181 2C18.3261 2 21.0181 4.692 21.0181 8C21.0181 11.308 18.3261 14 15.0181 14C11.7101 14 9.01807 11.308 9.01807 8C9.01807 4.692 11.7081 2 15.0181 2ZM30 31.0381V37C30 37.552 29.552 38 29 38C28.448 38 28 37.552 28 37V31.0381C28 29.5301 27.566 22 19 22H11C2.648 22 2 28.9161 2 31.0381V37C2 37.552 1.552 38 1 38C0.448 38 0 37.552 0 37V31.0381C0 25.9461 2.88 20 11 20H19C27.12 20 30 25.9461 30 31.0381ZM25.6599 15.0759C25.2659 14.6899 25.258 14.0561 25.644 13.6621C26.028 13.2681 26.6661 13.26 27.0581 13.646C27.8701 14.442 28.9579 14.8799 30.1179 14.8799C32.5679 14.8799 34.5601 12.8879 34.5601 10.4399C34.5601 7.99194 32.5679 6 30.1179 6C29.4219 6 28.7901 6.14393 28.2361 6.42993C27.7481 6.68193 27.1419 6.49005 26.8899 5.99805C26.6359 5.50605 26.83 4.9041 27.322 4.6521C28.162 4.2201 29.1039 4.00195 30.1179 4.00195C33.6699 4.00195 36.5601 6.89189 36.5601 10.4419C36.5601 13.9919 33.6719 16.8821 30.1179 16.8821C28.4319 16.8801 26.8479 16.2399 25.6599 15.0759ZM42 28.3601V33C42 33.552 41.552 34 41 34C40.448 34 40 33.552 40 33V28.3601C40 26.7641 39.512 21.5601 33.22 21.5601H30.198C29.646 21.5601 29.198 21.1121 29.198 20.5601C29.198 20.0081 29.646 19.5601 30.198 19.5601H33.22C39.702 19.5601 42 24.3001 42 28.3601Z" fill="#25314C"/>
</svg>
